<svg xmlns="http://www.w3.org/2000/svg" viewBox="0 0 65.01 24"><title>jukexiao</title><defs xmlns="http://www.w3.org/2000/svg"><style>.cls-1{isolation:isolate;}.cls-2{fill:#2c77ff;}</style></defs><g id="图层_2" data-name="图层 2"><g id="形状_4" data-name="形状 4" class="cls-1"><g id="形状_4-2" data-name="形状 4"><path class="cls-2" d="M7,17.13A10.56,10.56,0,0,1,3.13,19.2c-1.48.46-2.1.56-2.22.6-.8.19-1,.68-.85,1.05s.52.5,1.46.22c0,0,1.19-.31,2.33-.71A14.57,14.57,0,0,0,7,18.81l1-.66c.54-.35,1.26-1,1-1.56S8,16.22,7,17.13ZM1.19,16.5a7.76,7.76,0,0,0,3.3-1.36c1-.68,1.59-1.19,1.69-1.63A.81.81,0,0,0,6,12.8c-.42-.36-1.11.06-1.64.54a11.1,11.1,0,0,1-1.89,1.33,5.41,5.41,0,0,1-1.5.52c-.89.2-1,.67-.87,1S.9,16.54,1.19,16.5ZM20.4,21.74c-.54-.15-2-.71-2.69-1a8.35,8.35,0,0,1-1.79-1q-.83-.6-1.38-1.05a25.13,25.13,0,0,0,4.57-2.27c.64-.42.83-.57.88-.87a1,1,0,0,0-.23-.86c-.22-.27-.45-.32-.69-.13s-.51.4-.87.65-.91.59-1.63,1a18,18,0,0,1-3,1.22c-.64-.76-1-1.25-1.18-1.47s-.29-.49-.46-.81a14.62,14.62,0,0,0,4.47-1.13c.93-.47,1.8-1.09,1.39-1.75-.15-.25-.75-.36-1.29-.09l-.82.47a12.57,12.57,0,0,1-2.26.83,24.12,24.12,0,0,1-5.66.74c-.83,0-1.34,0-1.51.16A.63.63,0,0,0,6,14.9a.73.73,0,0,0,.18.51c.12.16.45.23,1,.21L10,15.43l0,7.75c0,.48.2.74.6.76a.62.62,0,0,0,.59-.21.82.82,0,0,0,.21-.55v-6A22,22,0,0,0,13.79,20a11.25,11.25,0,0,0,4.26,2.45c1.92.7,1.95.68,2.45.7s.74-.18.73-.6S20.93,21.88,20.4,21.74ZM.54,3H1.89v8c-.77.1-1.19.17-1.26.19a.55.55,0,0,0-.2.15.76.76,0,0,0-.13.7c.06.31.4.42,1,.33,1.9-.25,3.07-.41,3.5-.48s1.71-.3,3.82-.7v1.18a.74.74,0,0,0,.14.44.6.6,0,0,0,.52.2.64.64,0,0,0,.49-.18.69.69,0,0,0,.17-.46V10.92q1.09-.26,1.29-.66c.14-.31.14-.53,0-.69a1,1,0,0,0-.45-.26,3.59,3.59,0,0,0-.82.14V3h.7a.45.45,0,0,0,.45-.36.88.88,0,0,0,0-.75.43.43,0,0,0-.4-.16H.54c-.21,0-.36.13-.42.41a.69.69,0,0,0,.06.65A.53.53,0,0,0,.54,3ZM8.65,9.86c-1.88.42-3.71.74-5.49,1v-2l5.5-.69Zm0-3-5.5.68V5.72H8.65ZM8.65,3V4.45H3.14V3Zm3.57-.21h6.32a.34.34,0,0,1,.28.17,1,1,0,0,1,0,.57,3.67,3.67,0,0,1-.51,1.16c-.31.51-.65,1-1,1.53a8.21,8.21,0,0,1-1.09,1.24l-.7-.73a4.67,4.67,0,0,1-.84-1.09,9,9,0,0,1-.61-1.17,4.32,4.32,0,0,0-.37-.73.83.83,0,0,0-.44-.33.5.5,0,0,0-.55.13.72.72,0,0,0-.29.46,2,2,0,0,0,.28.84c.19.41.32.67.38.79a5.09,5.09,0,0,0,.36.6c.19.28.37.55.56.8s.36.47.52.66.38.41.66.68a14.8,14.8,0,0,1-2.95,1.88,6.5,6.5,0,0,0-1.23.59.91.91,0,0,0-.24.4.44.44,0,0,0,.15.49.8.8,0,0,0,.58.24,5,5,0,0,0,1.63-.7c.87-.47,1.37-.76,1.52-.85l.77-.54.84-.62.68.54c.14.11.54.37,1.21.78a4.32,4.32,0,0,0,1.8.74.6.6,0,0,0,.54-.67.62.62,0,0,0-.12-.4c-.08-.1-1.05-.57-1.42-.77a16.64,16.64,0,0,1-1.67-1.1l.83-.93A11.55,11.55,0,0,0,19,6.23a17.71,17.71,0,0,0,1-1.66A4.7,4.7,0,0,0,20.44,3c.07-.66-.05-1.06-.37-1.22A2.56,2.56,0,0,0,19,1.51H12.22a.49.49,0,0,0-.32.15.64.64,0,0,0-.16.44.69.69,0,0,0,.16.49A.48.48,0,0,0,12.22,2.77Zm28.87-.61H33.26S33,.94,32.86.68a2.42,2.42,0,0,0-.24-.49A.85.85,0,0,0,32,0a.73.73,0,0,0-.59.23.7.7,0,0,0-.18.44,2.66,2.66,0,0,0,.1.53,9.25,9.25,0,0,1,.28,1H23.85a7.91,7.91,0,0,0-1.13.06,1.47,1.47,0,0,0-.72.37,1.31,1.31,0,0,0-.44.67,3,3,0,0,0-.1.82v.44a.59.59,0,0,0,.15.38.63.63,0,0,0,.51.18.71.71,0,0,0,.59-.2.57.57,0,0,0,.19-.36A1.21,1.21,0,0,1,23,3.93a.61.61,0,0,1,.33-.3A2,2,0,0,1,24,3.54h16.6c.63,0,.94,0,1.19.64a4.73,4.73,0,0,0,.33.62.71.71,0,0,0,.72.3.55.55,0,0,0,.49-.3,3,3,0,0,0-.15-1.7C43,2.5,42.34,2.16,41.09,2.16ZM41,13.38A16,16,0,0,1,39.16,13c-1.12-.27-2-.5-2.56-.68a21.48,21.48,0,0,1-2.1-.77,12.06,12.06,0,0,0,2.39-1.48,23.74,23.74,0,0,0,1.94-1.81,3.48,3.48,0,0,0,.94-1.33,1.06,1.06,0,0,0-.31-1.07,2.29,2.29,0,0,0-1.6-.5H26.63a2.76,2.76,0,0,0-1.26.2,1.37,1.37,0,0,0-.61.73,10.51,10.51,0,0,0-.17,2.5c0,.86.14,1.41.79,1.39s.73-.45.75-1.28,0-1.65.39-2c.15-.13.37-.13.94-.13H37.58c.22,0,.36,0,.39.12s-.22.37-.33.52a8.87,8.87,0,0,1-1.52,1.42,27.82,27.82,0,0,1-3.39,2l-1.66.59a35.11,35.11,0,0,1-4.95,1.53c-1.95.48-2.2.56-3,.71s-1.31.31-1.41.47a.86.86,0,0,0-.08.48.69.69,0,0,0,.14.46.62.62,0,0,0,.35.14,22.51,22.51,0,0,0,2.28-.42c.92-.17,3.43-.82,4.19-1s2.17-.64,4.18-1.35a29.26,29.26,0,0,0,3.1,1.17c.92.28,1.87.55,2.84.8a17.75,17.75,0,0,0,1.75.41,6,6,0,0,0,1.67.22.85.85,0,0,0,.34-.3.71.71,0,0,0,.16-.49.6.6,0,0,0-.17-.44A4.9,4.9,0,0,0,41,13.38ZM52.31,2.82H47.73l.14-.61.18-1A2.6,2.6,0,0,0,48.1.63a.52.52,0,0,0-.18-.39.93.93,0,0,0-.45-.18.9.9,0,0,0-.6.07.67.67,0,0,0-.29.41,6.75,6.75,0,0,0-.17,1,7,7,0,0,1-.24,1.15c-.14.59-.33,1.26-.57,2A14.45,14.45,0,0,1,44.66,7c-.38.76-.61,1.23-.68,1.43a1.69,1.69,0,0,0-.1.45.73.73,0,0,0,.19.51.58.58,0,0,0,.49.16A.8.8,0,0,0,45,9.38a4.9,4.9,0,0,0,.66-1h1.54v4H44.86a.65.65,0,0,0-.65.63.58.58,0,0,0,.18.54.68.68,0,0,0,.43.16h2.41V21.2l0,2.09c0,.37.56.85,1.27.23a16.7,16.7,0,0,0,1.33-1.25,15.93,15.93,0,0,0,1.73-1.88,1.64,1.64,0,0,0,.37-.8.69.69,0,0,0-.25-.63.82.82,0,0,0-.56-.16,1.22,1.22,0,0,0-.69.52c-.26.33-.87,1-1.83,2.08V13.68h2.73a.6.6,0,0,0,.46-.18.93.93,0,0,0,.17-.67q0-.48-.63-.48H48.63v-4h2.08a.63.63,0,0,0,.48-.2.67.67,0,0,0,.17-.51.59.59,0,0,0-.2-.47A.68.68,0,0,0,50.71,7H46.25c.25-.56.41-.94.49-1.16L47,5c.05-.17.15-.43.28-.79h5a.61.61,0,0,0,.48-.2.67.67,0,0,0,.17-.5.61.61,0,0,0-.2-.48A.67.67,0,0,0,52.31,2.82Zm2.15.24A5.46,5.46,0,0,1,55,3.9l.58,1a5,5,0,0,1,.34.62,3.27,3.27,0,0,0,.25.44.76.76,0,0,0,1,.13.75.75,0,0,0,.31-.5,1.17,1.17,0,0,0-.07-.49A8.22,8.22,0,0,0,57,4.16l-.5-.89a9.65,9.65,0,0,0-1.15-1.4.87.87,0,0,0-.54-.22.69.69,0,0,0-.61.24.52.52,0,0,0-.14.54A2.21,2.21,0,0,0,54.46,3.06ZM64,7a2.85,2.85,0,0,0-1.07-.22H60.16V1.65a.64.64,0,0,0-.22-.45A.6.6,0,0,0,59.47,1a.89.89,0,0,0-.49.21.51.51,0,0,0-.23.43V6.78H55.46a2.42,2.42,0,0,0-1.57.38,1.67,1.67,0,0,0-.45,1.33V22.84c0,.12.1.27.29.46a.52.52,0,0,0,.71,0c.28-.18.42-.34.42-.47V17.31l8.55-1.17V21a4.11,4.11,0,0,1-.06.84,1.06,1.06,0,0,1-.23.43,1,1,0,0,1-.67.21,4.77,4.77,0,0,1-1.1-.08c-.49-.08-.83-.15-1-.2a1.46,1.46,0,0,0-.42-.07.77.77,0,0,0-.44.34.64.64,0,0,0-.13.53,1.06,1.06,0,0,0,.23.43,1.08,1.08,0,0,0,.57.27c.27.06.65.12,1.15.18a11.75,11.75,0,0,0,1.51.09,2.14,2.14,0,0,0,1.54-.6,2.53,2.53,0,0,0,.54-1.57V8.76a3.47,3.47,0,0,0-.15-1A1.15,1.15,0,0,0,64,7Zm-.6,7.84L54.86,16V13h8.55Zm0-3.66v.51H54.86V9.12a1.62,1.62,0,0,1,.07-.48.81.81,0,0,1,.21-.32,1.4,1.4,0,0,1,.79-.13h6.48c.41,0,.65.06.74.16a1,1,0,0,1,.2.32,1.15,1.15,0,0,1,.06.37Zm-1.84-5a1.52,1.52,0,0,0,.66-.31,9.8,9.8,0,0,0,1.19-1.24,14.54,14.54,0,0,0,1.24-1.49A1.61,1.61,0,0,0,65,2.29a.64.64,0,0,0-.37-.57.59.59,0,0,0-.59,0,1.26,1.26,0,0,0-.42.3l-.35.51c-.16.24-1.39,1.71-1.62,1.94L61.11,5a1.18,1.18,0,0,0-.22.3A.62.62,0,0,0,61,6,.66.66,0,0,0,61.57,6.2ZM39.74,15.84a1.86,1.86,0,0,0-1.49-.45H26.6a2,2,0,0,0-1.66.42,1.78,1.78,0,0,0-.38,1.44v3.62c0,1.68,1,2.09,1.75,2.13h12a1.68,1.68,0,0,0,1.85-1.77V17.35A1.94,1.94,0,0,0,39.74,15.84Zm-1,4.68a1.15,1.15,0,0,1-.22.89,1.19,1.19,0,0,1-.9.23H26.75a.83.83,0,0,1-.68-.18,1.16,1.16,0,0,1-.16-.92V17.67a.89.89,0,0,1,.15-.74.84.84,0,0,1,.64-.2l.33,0H38.09a.57.57,0,0,1,.47.12,1.23,1.23,0,0,1,.18.92Z"/></g></g></g></svg>