<svg t="1621480555562" class="icon" viewBox="0 0 1024 1024" version="1.1" xmlns="http://www.w3.org/2000/svg" p-id="5832" width="32" height="32"><path d="M863.187627 919.371093H122.88v-62.208h771.413333v62.208h-31.105706z m-192.853334-111.977813v-410.589867c0-21.149013 13.687467-26.125653 31.105707-41.058986 31.102293-24.886613 100.778667-85.848747 100.778667-85.848747l58.48064 32.34816L894.293333 223.85664v583.53664h-223.95904z m-49.769813-360.820053v360.820053h-12.4416c-65.9456 0-123.17696 1.242453-186.630827 0h-24.886613V446.57664s73.407147 43.543893 108.243627 41.055573c36.08576-2.491733 115.715413-41.058987 115.715413-41.058986z m176.674133-230.181547c-8.704 7.46496-17.411413 12.4416-24.879786 19.90656-75.895467 64.703147-151.79776 130.64192-226.44736 195.341653-19.90656 17.41824-38.570667 19.909973-60.965547 4.97664-51.012267-32.34816-104.512853-60.965547-154.282667-94.562986-28.617387-19.90656-48.523947-17.41824-72.16128 6.219093-21.152427 21.15584-46.03904 38.570667-68.43392 57.238187-16.172373 12.4416-33.590613 19.909973-49.769813 2.48832-16.172373-17.41824-4.97664-32.34816 9.956693-44.793174 37.328213-31.105707 74.653013-60.965547 111.977814-92.071253 18.664107-16.175787 34.839893-14.92992 55.99232-2.48832 63.453867 39.816533 126.907733 77.141333 192.853333 116.954453 80.86528-69.676373 160.498347-139.352747 242.61632-210.271573-12.4416-12.4416-21.149013-21.152427-33.590613-34.83648 57.234773-13.687467 110.738773-27.374933 170.45504-43.547307-16.175787 57.23136-29.85984 107.001173-44.793174 160.50176-17.411413-13.68064-32.34816-26.12224-48.52736-41.055573zM294.58432 376.89344c47.27808 13.687467 52.258133 39.816533 52.258133 82.117973 1.242453 99.536213 0 247.599787 0 348.378454H122.88v-284.928c0-6.219093 14.933333-17.41824 21.152427-22.39488 49.769813-41.05216 100.78208-82.11456 150.551893-123.173547z" fill="currentColor" p-id="5833"></path></svg>