<svg id="回复" xmlns="http://www.w3.org/2000/svg" width="27" height="27" viewBox="0 0 27 27">
  <defs>
    <style>
      .cls-1 {
        fill: #f8f8ff;
        stroke: #c9c9ff;
        stroke-width: 2px;
      }

      .cls-2 {
        fill: #4747ff;
        fill-rule: evenodd;
      }
    </style>
  </defs>
  <rect id="矩形_1" data-name="矩形 1" class="cls-1" x="1" y="1" width="25" height="25"/>
  <path id="形状_1" data-name="形状 1" class="cls-2" d="M910.373,330.9A7.986,7.986,0,0,0,903,326h-0.035a7.977,7.977,0,0,0-5.652,2.365,7.892,7.892,0,0,0-1.7,2.55,8.041,8.041,0,0,0,.244,6.692v2.714a0.822,0.822,0,0,0,.822.822H899.4a8.023,8.023,0,0,0,3.569.857H903a8,8,0,0,0,7.371-11.1h0Zm-2.857,7.659A6.376,6.376,0,0,1,903,340.417h-0.029a6.448,6.448,0,0,1-2.986-.75l-0.144-.079h-2.429v-2.427l-0.078-.145a6.455,6.455,0,0,1-.751-2.986,6.41,6.41,0,0,1,6.39-6.447H903a6.419,6.419,0,0,1,4.518,10.978h0Zm0,0M907.045,335a1,1,0,1,1,.971-1,0.984,0.984,0,0,1-.971,1h0ZM903,335a1,1,0,1,1,.971-1,0.984,0.984,0,0,1-.971,1h0Zm0,0-5.022-1a1.006,1.006,0,0,0,.486.866,0.945,0.945,0,0,0,.971,0,1.006,1.006,0,0,0,.486-0.866,0.972,0.972,0,1,0-1.943,0h0Zm0,0" transform="translate(-889 -320)"/>
</svg>
