<svg xmlns="http://www.w3.org/2000/svg" width="20" height="17" viewBox="0 0 20 17">
  <defs>
    <style>
      .cls-1 {
        fill: #868686;
        fill-rule: evenodd;
      }
    </style>
  </defs>
  <path id="形状_64" data-name="形状 64" class="cls-1" d="M45.537,167.143c0.227,0,.455.022,0.681,0.043C45.61,164.217,42.556,162,39.078,162c-3.89.014-7.078,2.777-7.078,6.286a6.122,6.122,0,0,0,2.828,4.983l-0.712,2.216,2.477-1.291a11.674,11.674,0,0,0,2.476.365c0.227,0,.444-0.01.66-0.031a5.815,5.815,0,0,1,5.81-7.382v0Zm-3.807-2a0.926,0.926,0,0,1,0,1.851,0.934,0.934,0,1,1,0-1.851h0ZM36.776,167a0.934,0.934,0,1,1,0-1.851,0.926,0.926,0,0,1,0,1.851h0ZM52,172.9c0-2.948-2.827-5.358-6.017-5.358-3.364,0-6.016,2.41-6.016,5.358s2.653,5.36,6.016,5.36a8.707,8.707,0,0,0,2.126-.366L50.049,179l-0.536-1.84A5.694,5.694,0,0,0,52,172.9h0Zm-7.967-.925a0.783,0.783,0,0,1-.713-0.743,0.794,0.794,0,0,1,.713-0.743,0.755,0.755,0,1,1,0,1.486h0Zm3.891,0a0.773,0.773,0,0,1-.7-0.743,0.783,0.783,0,0,1,.7-0.743,0.755,0.755,0,1,1,0,1.486h0Zm0,0" transform="translate(-32 -162)"/>
</svg>
