<svg xmlns="http://www.w3.org/2000/svg" width="20" height="20" viewBox="0 0 20 20">
  <defs>
    <style>
      .cls-1 {
        fill: #868686;
        fill-rule: evenodd;
      }
    </style>
  </defs>
  <path id="形状_2" data-name="形状 2" class="cls-1" d="M44,108v-8h0a9.573,9.573,0,0,1,6.294,2.408C52.3,104.335,52,108,52,108H44Zm2-6v4h4C49.815,104.481,48.877,103.047,46,102Zm4.856,8v1.111a8.383,8.383,0,0,1-1.1,3.308,8.86,8.86,0,0,1-1.973,2.827,9.215,9.215,0,0,1-2.928,1.905,8.5,8.5,0,0,1-3.36.849,10.758,10.758,0,0,1-3.811-.849,9.212,9.212,0,0,1-2.928-1.905A9.08,9.08,0,0,1,32,110.909a8.412,8.412,0,0,1,.782-3.414,8.859,8.859,0,0,1,1.974-2.827,9.212,9.212,0,0,1,2.928-1.905,7.433,7.433,0,0,1,3.191-.541h1.109V110h8.874Z" transform="translate(-32 -100)"/>
</svg>
