<svg xmlns="http://www.w3.org/2000/svg" width="17" height="16" viewBox="0 0 17 16">
  <defs>
    <style>
      .cls-1 {
        fill: #5c68ed;
        fill-rule: evenodd;
      }
    </style>
  </defs>
  <path id="编辑" class="cls-1" d="M574.37,472.366L565.113,481,558,480.978l0.014-6.647,9.256-8.635a2.177,2.177,0,0,1,3.156,0l3.945,3.7c1.414,1.329,0,2.965,0,2.965h0ZM560,479h4l0.4-.4-3.863-3.68L560,475v4Zm11.728-8.8-2.318-2.208a1.013,1.013,0,0,0-1.5-.039l-5.677,5.361,3.863,3.68,5.678-5.361a0.906,0.906,0,0,0-.041-1.433h0Zm0,0" transform="translate(-558 -465)"/>
</svg>
