<svg xmlns="http://www.w3.org/2000/svg" width="22" height="22" viewBox="0 0 22 22">
  <defs>
    <style>
      .cls-1 {
        fill: #444;
        fill-rule: evenodd;
      }
    </style>
  </defs>
  <path id="表情" class="cls-1" d="M631,763.936A8.936,8.936,0,1,0,622.062,755,8.937,8.937,0,0,0,631,763.936h0ZM631,766a11,11,0,1,1,11-11,11,11,0,0,1-11,11h0Zm-3.438-11.342a1.719,1.719,0,1,0-1.718-1.718,1.718,1.718,0,0,0,1.718,1.718h0Zm6.876,0a1.719,1.719,0,1,0-1.719-1.718,1.718,1.718,0,0,0,1.719,1.718h0ZM631,759.949a4.453,4.453,0,0,1-4.032-2.749,0.772,0.772,0,0,0-.793-0.69,0.632,0.632,0,0,0-.675.69,5.86,5.86,0,0,0,5.5,4.124,5.757,5.757,0,0,0,5.5-4.124,0.67,0.67,0,0,0-.67-0.69,0.807,0.807,0,0,0-.776.69A4.409,4.409,0,0,1,631,759.949h0Zm0,0" transform="translate(-620 -744)"/>
</svg>
