<svg xmlns="http://www.w3.org/2000/svg" viewBox="0 0 22 20.01"><defs><style>.cls-1{fill:#888;}</style></defs><title>退出</title><g id="图层_2" data-name="图层 2"><g id="组_5" data-name="组 5"><g id="形状_10" data-name="形状 10"><path class="cls-1" d="M21.7,9.32,17.1,4.81a1,1,0,0,0-1.4,0l-.7.68L18.45,9H8.7a1,1,0,1,0,0,2h9.9l-2.9,2.85a.93.93,0,0,0,0,1.37,1,1,0,0,0,1.4,0l4.6-4.51A.93.93,0,0,0,21.7,9.32Zm-9.6,8.82H2V2H12.1a.93.93,0,0,0,1-1,.93.93,0,0,0-1-1H2A2,2,0,0,0,0,2V18a2,2,0,0,0,2,2H12.1a.92.92,0,0,0,1-.89A.93.93,0,0,0,12.1,18.14Z"/></g></g></g></svg>