<svg t="1619334765218" class="icon" viewBox="0 0 1024 1024" version="1.1" xmlns="http://www.w3.org/2000/svg" p-id="3371" width="20" height="20"><path d="M363.021838 1000.309622a33.59827 33.59827 0 0 1-33.59827-33.625946V620.876108c0-10.073946 4.538811-19.64973 12.454054-26.015135l306.81254-248.693622 42.343784 52.251676-294.386162 238.592v228.877838l99.632432-133.12a33.653622 33.653622 0 0 1 42.841946-9.40973l157.280865 84.383135 198.268541-711.458594L147.954162 446.796108l108.377946 62.187243-45.88627 51.255352L58.395676 472.838919a33.459892 33.459892 0 0 1-16.799135-30.581622A33.487568 33.487568 0 0 1 60.886486 413.197838L932.476541 4.206703c11.928216-5.535135 25.876757-3.680865 35.978378 4.704865 10.073946 8.413405 14.280649 22.029838 10.738162 34.594594L749.844757 866.248649a33.542919 33.542919 0 0 1-48.238703 20.48l-168.876973-90.554811-142.806486 190.685405c-6.393081 8.579459-16.467027 13.478054-26.900757 13.478054z" p-id="3372" fill="currentColor"></path></svg>