<svg t="1616464214318" class="icon" viewBox="0 0 1024 1024" version="1.1" xmlns="http://www.w3.org/2000/svg" p-id="2153" width="32" height="32"><path d="M362 62H182c-66 0-120 54-120 120v180c0 66 54 120 120 120h180c66 0 120-54 120-120V182c0-66-54-120-120-120z m30 270c0 33-27 60-60 60H212c-33 0-60-27-60-60V212c0-33 27-60 60-60h120c33 0 60 27 60 60v120zM362 542H182c-66 0-120 54-120 120v180c0 66 54 120 120 120h180c66 0 120-54 120-120V662c0-66-54-120-120-120z m30 270c0 33-27 60-60 60H212c-33 0-60-27-60-60V692c0-33 27-60 60-60h120c33 0 60 27 60 60v120zM842 62H662c-66 0-120 54-120 120v180c0 66 54 120 120 120h180c66 0 120-54 120-120V182c0-66-54-120-120-120z m30 270c0 33-27 60-60 60H692c-33 0-60-27-60-60V212c0-33 27-60 60-60h120c33 0 60 27 60 60v120zM842 542H662c-66 0-120 54-120 120v180c0 66 54 120 120 120h180c66 0 120-54 120-120V662c0-66-54-120-120-120z m30 270c0 33-27 60-60 60H692c-33 0-60-27-60-60V692c0-33 27-60 60-60h120c33 0 60 27 60 60v120z" fill="currentColor" p-id="2154"></path></svg>