<svg xmlns="http://www.w3.org/2000/svg" width="17" height="20" viewBox="0 0 17 20">
  <defs>
    <style>
      .cls-1 {
        fill: #868686;
        fill-rule: evenodd;
      }
    </style>
  </defs>
  <path id="形状_67" data-name="形状 67" class="cls-1" d="M50,700v10.053A1.88,1.88,0,0,1,48.187,712H34.813A1.882,1.882,0,0,1,33,710.055V693.944A1.885,1.885,0,0,1,34.807,692H42v7a0.876,0.876,0,0,0,1,1h7Zm-1-2-5-5v5h5Zm-13,3h4a1.067,1.067,0,0,0,1-1,1.05,1.05,0,0,0-1-1H36a0.948,0.948,0,0,0-1,1,1.147,1.147,0,0,0,1,1h0Zm0,4H47a1.047,1.047,0,0,0,1-1,1.164,1.164,0,0,0-1-1H36a1.036,1.036,0,0,0-1,1,1.123,1.123,0,0,0,1,1h0Zm0,0" transform="translate(-33 -692)"/>
</svg>
