<svg xmlns="http://www.w3.org/2000/svg" width="14" height="13" viewBox="0 0 14 13">
  <defs>
    <style>
      .cls-1 {
        fill: #4b4bff;
        fill-rule: evenodd;
      }
    </style>
  </defs>
  <path id="形状_68_拷贝" data-name="形状 68 拷贝" class="cls-1" d="M1614.94,133.527a0.933,0.933,0,0,0-.66-0.678l-0.22-.051a2.257,2.257,0,0,1-1.56-2.688l0.07-.212a0.943,0.943,0,0,0-.26-0.9,6.19,6.19,0,0,0-.82-0.517,6.573,6.573,0,0,0-.86-0.44,0.934,0.934,0,0,0-.92.224l-0.16.168a2.28,2.28,0,0,1-3.12,0l-0.15-.165a0.935,0.935,0,0,0-.92-0.223,6.545,6.545,0,0,0-.87.436,6.235,6.235,0,0,0-.82.524,0.919,0.919,0,0,0-.26.9l0.06,0.213a2.249,2.249,0,0,1-1.55,2.68l-0.22.051a0.907,0.907,0,0,0-.65.678,5.229,5.229,0,0,0-.05.968,6.026,6.026,0,0,0,.05.949,0.927,0.927,0,0,0,.65.7l0.21,0.048a2.249,2.249,0,0,1,1.56,2.694l-0.06.213a0.917,0.917,0,0,0,.26.9,6.14,6.14,0,0,0,.82.525,6.453,6.453,0,0,0,.87.421,0.948,0.948,0,0,0,.92-0.22l0.15-.146a2.274,2.274,0,0,1,3.12,0l0.16,0.161a0.924,0.924,0,0,0,.91.22,6.693,6.693,0,0,0,.87-0.44,6.235,6.235,0,0,0,.82-0.524,0.9,0.9,0,0,0,.26-0.9l-0.06-.22a2.249,2.249,0,0,1,1.56-2.694l0.22-.048a0.926,0.926,0,0,0,.65-0.686,6.07,6.07,0,0,0,.06-0.953,6.218,6.218,0,0,0-.06-0.964h0Zm-6.96,3.054a2.258,2.258,0,0,1-2.09-1.376,2.216,2.216,0,0,1,.49-2.439,2.254,2.254,0,0,1,2.45-.488,2.234,2.234,0,0,1-.85,4.3h0Zm0,0" transform="translate(-1601 -128)"/>
</svg>
