<svg xmlns="http://www.w3.org/2000/svg" width="19" height="20" viewBox="0 0 19 20">
  <defs>
    <style>
      .cls-1 {
        fill: #868686;
        fill-rule: evenodd;
      }
    </style>
  </defs>
  <path id="形状_65_拷贝" data-name="形状 65 拷贝" class="cls-1" d="M19.5,226a4.8,4.8,0,0,1,3.378,1.388,4.715,4.715,0,0,1,1.4,3.349h2.972a0.793,0.793,0,0,1,.794.735L29,245.152a0.786,0.786,0,0,1-.212.593A0.8,0.8,0,0,1,28.2,246H10.8a0.8,0.8,0,0,1-.582-0.251A0.786,0.786,0,0,1,10,245.152l0.952-13.682a0.793,0.793,0,0,1,.794-0.735h2.972A4.757,4.757,0,0,1,19.5,226h0Zm-4.317,11.8a0.8,0.8,0,0,0-.7.414,0.784,0.784,0,0,0,.036.809,5.866,5.866,0,0,0,9.965,0,0.783,0.783,0,0,0,.02-0.789,0.8,0.8,0,0,0-1.379-.035,4.266,4.266,0,0,1-7.247,0,0.8,0.8,0,0,0-.694-0.4h0ZM19.5,227.577a3.172,3.172,0,0,0-3.185,3.158h6.369a3.171,3.171,0,0,0-3.185-3.158h0Zm0,0" transform="translate(-10 -226)"/>
</svg>
