<svg xmlns="http://www.w3.org/2000/svg" width="20" height="20" viewBox="0 0 20 20">
  <defs>
    <style>
      .cls-1 {
        fill: #444;
        fill-rule: evenodd;
      }
    </style>
  </defs>
  <path id="形状_86" data-name="形状 86" class="cls-1" d="M820,826a10,10,0,1,1,10-10A10.011,10.011,0,0,1,820,826Zm0-18a8,8,0,1,0,8,8A8.007,8.007,0,0,0,820,808.005Zm3.152,8.9a1,1,0,0,1-.4-1.959,1.293,1.293,0,0,0,1.029-1.266v-0.2a1.293,1.293,0,0,0-1.29-1.291h-0.2A1.293,1.293,0,0,0,821,813.485v2.479s0,0.007,0,.01v2.49a3.294,3.294,0,0,1-3.291,3.29h-0.2a3.294,3.294,0,0,1-3.29-3.29v-0.2a3.276,3.276,0,0,1,2.55-3.207,1,1,0,1,1,.449,1.948,1.286,1.286,0,0,0-1,1.259v0.2a1.293,1.293,0,0,0,1.291,1.29h0.2a1.292,1.292,0,0,0,1.291-1.29v-4.979a3.3,3.3,0,0,1,3.291-3.29h0.2a3.294,3.294,0,0,1,3.29,3.29v0.2A3.3,3.3,0,0,1,823.151,816.909Z" transform="translate(-810 -806)"/>
</svg>
