<svg id="踢出群" xmlns="http://www.w3.org/2000/svg" width="27" height="27" viewBox="0 0 27 27">
  <defs>
    <style>
      .cls-1 {
        fill: #fff;
        stroke: #c9c9ff;
        stroke-width: 2px;
      }

      .cls-2 {
        fill: #4b4bff;
        fill-rule: evenodd;
      }
    </style>
  </defs>
  <rect id="矩形_1_拷贝_2" data-name="矩形 1 拷贝 2" class="cls-1" x="1" y="1" width="25" height="25"/>
  <path id="圆角矩形_21_拷贝_2" data-name="圆角矩形 21 拷贝 2" class="cls-2" d="M934,341c0.028-.026-3.572,0-3,0h-7a1,1,0,0,1,0-2h6.634l-1.386-1.36a1,1,0,0,1,1.09-1.677l2.87,2.815C933.671,339.079,934.9,340.172,934,341Zm-5.216-6.982-1.428,1.216a5.265,5.265,0,0,0-2.4-.594,5.028,5.028,0,0,0-5.14,4.9,0.908,0.908,0,0,1-1.814,0,6.612,6.612,0,0,1,3.982-5.98,4.21,4.21,0,0,1-1.563-3.236,4.541,4.541,0,0,1,9.071,0,4.21,4.21,0,0,1-1.563,3.236A7.119,7.119,0,0,1,928.784,334.018Zm-3.83-6.29a2.6,2.6,0,1,0,2.722,2.592A2.662,2.662,0,0,0,924.954,327.728Z" transform="translate(-912 -320)"/>
</svg>
