<svg id="踢出并拉黑" xmlns="http://www.w3.org/2000/svg" width="27" height="27" viewBox="0 0 27 27">
  <defs>
    <style>
      .cls-1 {
        fill: #fff;
        stroke: #c9c9ff;
        stroke-width: 2px;
      }

      .cls-2 {
        fill: #ff4b60;
        fill-rule: evenodd;
      }
    </style>
  </defs>
  <rect id="矩形_1_拷贝_3" data-name="矩形 1 拷贝 3" class="cls-1" x="1" y="1" width="25" height="25"/>
  <path id="圆角矩形_21_拷贝_4" data-name="圆角矩形 21 拷贝 4" class="cls-2" d="M958.025,335.885l-1.858,1.663,1.666,1.863a1,1,0,1,1-1.491,1.333l-1.666-1.863-1.868,1.671a1,1,0,0,1-1.334-1.491l1.868-1.671-1.666-1.863a1,1,0,0,1,1.49-1.334l1.667,1.864,1.859-1.662A1,1,0,1,1,958.025,335.885Zm-6.241-1.867-1.428,1.216a5.265,5.265,0,0,0-2.4-.594,5.028,5.028,0,0,0-5.14,4.9,0.908,0.908,0,0,1-1.814,0,6.612,6.612,0,0,1,3.982-5.98,4.21,4.21,0,0,1-1.563-3.236,4.541,4.541,0,0,1,9.071,0,4.21,4.21,0,0,1-1.563,3.236A7.119,7.119,0,0,1,951.784,334.018Zm-3.83-6.29a2.6,2.6,0,1,0,2.722,2.592A2.662,2.662,0,0,0,947.954,327.728Z" transform="translate(-935 -320)"/>
</svg>
