<svg xmlns="http://www.w3.org/2000/svg" viewBox="0 0 12 12"><defs><style>.cls-1{isolation:isolate;}.cls-2{fill:#6568f1;}</style></defs><title>小程序</title><g id="图层_2" data-name="图层 2"><g id="形状_84" data-name="形状 84" class="cls-1"><g id="形状_84-2" data-name="形状 84"><path class="cls-2" d="M8.6,0h0A3.38,3.38,0,0,0,5.2,3.34V3.4h0V8.54a.49.49,0,0,0,0,.12,1.77,1.77,0,0,1-1.54,1.75,1.8,1.8,0,0,1-2-1.25,1.75,1.75,0,0,1,1-2.1h0A.79.79,0,0,0,3,6a.82.82,0,0,0-1-.39A3.33,3.33,0,0,0,3.4,12,3.38,3.38,0,0,0,6.8,8.66V8.6h0V3.31A1.77,1.77,0,0,1,8.37,1.59a1.79,1.79,0,0,1,2,1.26,1.76,1.76,0,0,1-1,2.09h0A.8.8,0,0,0,9,6a.84.84,0,0,0,.46.41.81.81,0,0,0,.61,0,3.34,3.34,0,0,0,2-3A3.38,3.38,0,0,0,8.6,0Z"/></g></g></g></svg>