<svg xmlns="http://www.w3.org/2000/svg" width="19" height="18" viewBox="0 0 19 18">
  <defs>
    <style>
      .cls-1 {
        fill: #868686;
        fill-rule: evenodd;
      }
    </style>
  </defs>
  <path id="形状_68" data-name="形状 68" class="cls-1" d="M50.913,828.653a1.273,1.273,0,0,0-.888-0.939l-0.306-.071a3.132,3.132,0,0,1-2.107-3.721l0.09-.294a1.3,1.3,0,0,0-.356-1.249,8.646,8.646,0,0,0-1.109-.716,8.807,8.807,0,0,0-1.174-.609,1.249,1.249,0,0,0-1.244.31L43.6,821.6a3.048,3.048,0,0,1-4.234,0l-0.206-.228a1.249,1.249,0,0,0-1.244-.31,8.767,8.767,0,0,0-1.184.6,8.675,8.675,0,0,0-1.109.726,1.29,1.29,0,0,0-.361,1.249l0.09,0.294a3.127,3.127,0,0,1-2.112,3.711l-0.3.071a1.271,1.271,0,0,0-.883.939,13.556,13.556,0,0,0,0,2.654,1.278,1.278,0,0,0,.883.965l0.291,0.066a3.131,3.131,0,0,1,2.122,3.731l-0.09.294a1.29,1.29,0,0,0,.361,1.249,8.627,8.627,0,0,0,1.109.726,8.4,8.4,0,0,0,1.179.583,1.252,1.252,0,0,0,1.244-.3l0.206-.2a3.053,3.053,0,0,1,4.244,0l0.206,0.223a1.254,1.254,0,0,0,1.244.305,9.03,9.03,0,0,0,1.179-.609,8.642,8.642,0,0,0,1.109-.726,1.294,1.294,0,0,0,.361-1.249l-0.09-.3a3.131,3.131,0,0,1,2.122-3.731l0.291-.066a1.268,1.268,0,0,0,.888-0.95,10.073,10.073,0,0,0-.005-2.654h0Zm-9.441,4.228a3.061,3.061,0,0,1-2.834-1.9A3.124,3.124,0,0,1,39.3,827.6a3.033,3.033,0,0,1,3.336-.676,3.118,3.118,0,0,1,1,5.049,3.035,3.035,0,0,1-2.159.909h0Zm0,0" transform="translate(-32 -821)"/>
</svg>
